<svg width="185" height="52" viewBox="0 0 185 52" fill="none" xmlns="http://www.w3.org/2000/svg">
<g id="Frame 9266415">
<g id="Vector">
<path d="M22.8999 27.6002C22.8999 24.368 25.6706 21.7379 29.0756 21.7379C32.4805 21.7379 35.2512 24.368 35.2512 27.6002C35.2512 29.8501 33.9159 31.8147 31.9464 32.7971C30.9895 31.0648 30.0325 29.3325 29.0756 27.6002C28.1186 29.3325 27.1617 31.0648 26.2048 32.7971C24.2353 31.8147 22.8999 29.8501 22.8999 27.6002Z" fill="#0027DC"/>
<path d="M16.1238 27.6002C16.1238 20.7873 21.9322 15.3053 29.0759 15.3053C36.2196 15.3053 42.028 20.7873 42.028 27.6002C42.028 32.3217 39.224 36.4095 35.0846 38.4692C34.0387 36.5679 32.9924 34.6772 31.9464 32.7971C33.9159 31.8147 35.2512 29.8501 35.2512 27.6002C35.2512 24.368 32.4805 21.7379 29.0756 21.7379C25.6706 21.7379 22.8999 24.368 22.8999 27.6002C22.8999 29.8501 24.2353 31.8147 26.2048 32.7971C25.1588 34.6772 24.1132 36.5679 23.0672 38.4692C18.9279 36.4095 16.1238 32.3217 16.1238 27.6002Z" fill="#0053DC"/>
<path d="M8.07844 27.6003C8.07844 16.6045 17.4921 7.63683 29.0755 7.63683C40.659 7.63683 50.0727 16.6045 50.0727 27.6003C50.0727 35.2371 45.4993 41.8916 38.823 45.2505C37.5767 42.9901 36.3309 40.7296 35.0846 38.4692C39.224 36.4095 42.028 32.3217 42.028 27.6002C42.028 20.7873 36.2196 15.3053 29.0759 15.3053C21.9322 15.3053 16.1238 20.7873 16.1238 27.6002C16.1238 32.3217 18.9279 36.4095 23.0672 38.4692C21.8209 40.7296 20.5743 42.9901 19.3281 45.2505C12.6183 41.8916 8.07844 35.2371 8.07844 27.6003Z" fill="#00A5FF"/>
<path d="M58.1175 27.6002C58.1175 38.184 51.8084 47.3736 42.595 52C41.3265 49.7396 40.0692 47.4898 38.823 45.2505C45.4993 41.8916 50.0727 35.2371 50.0727 27.6003C50.0727 16.6045 40.659 7.63683 29.0755 7.63683C17.4921 7.63683 8.07844 16.6045 8.07844 27.6003C8.07844 35.2371 12.6183 41.8916 19.3281 45.2505C18.0596 47.5109 16.8021 49.7607 15.5558 52C6.3091 47.4052 0 38.184 0 27.6002C0 12.39 13.0522 0 29.0754 0C45.0987 0 58.1175 12.39 58.1175 27.6002Z" fill="#CEF3FC"/>
<path d="M86.9438 27.547C88.2566 27.4603 89.3506 27.3043 90.2258 27.079C91.1192 26.8537 91.8303 26.5243 92.359 26.091C92.906 25.6577 93.2889 25.1203 93.5077 24.479C93.7265 23.8203 93.8359 23.0143 93.8359 22.061C93.8359 20.917 93.7174 19.955 93.4803 19.175C93.2433 18.395 92.8057 17.771 92.1676 17.303C91.5477 16.8177 90.6816 16.4797 89.5694 16.289C88.4572 16.081 87.0168 15.977 85.2482 15.977H81.1731C79.4045 15.977 77.9915 16.1503 76.9339 16.497C75.8947 16.8437 75.1015 17.3203 74.5545 17.927C74.0076 18.5337 73.652 19.253 73.4879 20.085C73.342 20.8997 73.2691 21.7837 73.2691 22.737H77.8365C77.8365 22.1303 77.8729 21.6277 77.9459 21.229C78.037 20.813 78.2285 20.4837 78.5202 20.241C78.8302 19.9983 79.2678 19.8337 79.833 19.747C80.3982 19.643 81.164 19.591 82.1303 19.591H85.1388C85.9775 19.591 86.6612 19.6257 87.19 19.695C87.737 19.747 88.1654 19.8597 88.4754 20.033C88.7854 20.189 88.995 20.4057 89.1044 20.683C89.2138 20.943 89.2685 21.281 89.2685 21.697C89.2685 22.113 89.223 22.4597 89.1318 22.737C89.0589 22.997 88.9039 23.2137 88.6668 23.387C88.4481 23.543 88.1381 23.6643 87.737 23.751C87.3358 23.8203 86.8253 23.881 86.2054 23.933L80.1612 24.349C77.9368 24.505 76.2046 25.025 74.9648 25.909C73.7432 26.793 73.1324 28.145 73.1324 29.965V34.125H93.7265V30.511H77.6997V29.939C77.6997 29.2283 78.037 28.7343 78.7117 28.457C79.3863 28.1797 80.4711 27.989 81.9662 27.885L86.9438 27.547Z" fill="#010E38"/>
<path d="M113.564 29.861V29.471H109.243C109.243 29.731 109.197 29.965 109.106 30.173C109.033 30.381 108.86 30.5543 108.586 30.693C108.313 30.8143 107.921 30.9097 107.41 30.979C106.918 31.0483 106.252 31.083 105.414 31.083H104.32C102.825 31.083 101.776 30.8577 101.175 30.407C100.573 29.9563 100.272 29.211 100.272 28.171V27.339C100.272 26.7843 100.336 26.3163 100.463 25.935C100.591 25.5537 100.81 25.2417 101.12 24.999C101.43 24.7563 101.84 24.583 102.351 24.479C102.879 24.3577 103.527 24.297 104.292 24.297H105.332C106.17 24.297 106.845 24.3317 107.355 24.401C107.866 24.453 108.258 24.5483 108.532 24.687C108.823 24.8083 109.015 24.9643 109.106 25.155C109.197 25.3283 109.243 25.5363 109.243 25.779H113.564V25.519C113.564 24.7737 113.454 24.1323 113.236 23.595C113.017 23.0403 112.625 22.5897 112.06 22.243C111.494 21.8963 110.71 21.645 109.708 21.489C108.723 21.3157 107.465 21.229 105.933 21.229H103.882C102.423 21.229 101.211 21.3417 100.245 21.567C99.2783 21.775 98.5034 22.1043 97.9199 22.555C97.3547 23.0057 96.9536 23.595 96.7166 24.323C96.4795 25.051 96.361 25.9177 96.361 26.923V28.587C96.361 29.5923 96.4704 30.4503 96.6892 31.161C96.9262 31.8543 97.3365 32.4263 97.9199 32.877C98.5034 33.3103 99.3056 33.631 100.327 33.839C101.348 34.0297 102.651 34.125 104.238 34.125H106.289C107.839 34.125 109.088 34.0297 110.036 33.839C111.002 33.6483 111.741 33.371 112.251 33.007C112.78 32.643 113.126 32.201 113.29 31.681C113.473 31.1437 113.564 30.537 113.564 29.861Z" fill="#010E38"/>
<path d="M120.924 16.081H116.384V34.125H120.924V16.081Z" fill="#010E38"/>
<path d="M129.073 21.281H124.506V34.125H129.073V21.281ZM129.073 16.081H124.506V19.539H129.073V16.081Z" fill="#010E38"/>
<path d="M148.952 29.861V29.471H144.631C144.631 29.731 144.586 29.965 144.495 30.173C144.422 30.381 144.248 30.5543 143.975 30.693C143.701 30.8143 143.309 30.9097 142.799 30.979C142.307 31.0483 141.641 31.083 140.802 31.083H139.708C138.213 31.083 137.165 30.8577 136.563 30.407C135.961 29.9563 135.661 29.211 135.661 28.171V27.339C135.661 26.7843 135.724 26.3163 135.852 25.935C135.98 25.5537 136.199 25.2417 136.508 24.999C136.818 24.7563 137.229 24.583 137.739 24.479C138.268 24.3577 138.915 24.297 139.681 24.297H140.72C141.559 24.297 142.234 24.3317 142.744 24.401C143.255 24.453 143.647 24.5483 143.92 24.687C144.212 24.8083 144.403 24.9643 144.495 25.155C144.586 25.3283 144.631 25.5363 144.631 25.779H148.952V25.519C148.952 24.7737 148.843 24.1323 148.624 23.595C148.405 23.0403 148.013 22.5897 147.448 22.243C146.883 21.8963 146.099 21.645 145.096 21.489C144.112 21.3157 142.854 21.229 141.322 21.229H139.271C137.812 21.229 136.6 21.3417 135.633 21.567C134.667 21.775 133.892 22.1043 133.309 22.555C132.743 23.0057 132.342 23.595 132.105 24.323C131.868 25.051 131.75 25.9177 131.75 26.923V28.587C131.75 29.5923 131.859 30.4503 132.078 31.161C132.315 31.8543 132.725 32.4263 133.309 32.877C133.892 33.3103 134.694 33.631 135.715 33.839C136.736 34.0297 138.04 34.125 139.626 34.125H141.678C143.227 34.125 144.476 34.0297 145.424 33.839C146.391 33.6483 147.129 33.371 147.64 33.007C148.168 32.643 148.515 32.201 148.679 31.681C148.861 31.1437 148.952 30.537 148.952 29.861Z" fill="#010E38"/>
<path d="M151.253 16.081V34.125H155.793V27.677H156.586L162.302 34.125H167.389L160.415 26.481L166.678 21.281H161.564L156.532 25.467H155.793V16.081H151.253Z" fill="#010E38"/>
<path d="M171.721 30.303H167.701C167.701 31.0657 167.82 31.6983 168.057 32.201C168.312 32.6863 168.658 33.0763 169.096 33.371C169.552 33.6657 170.099 33.8737 170.737 33.995C171.375 34.099 172.077 34.151 172.843 34.151H179.297C181.084 34.151 182.433 33.8217 183.345 33.163C184.275 32.5043 184.74 31.525 184.74 30.225V29.549C184.74 28.925 184.649 28.3963 184.466 27.963C184.284 27.5123 183.974 27.1397 183.536 26.845C183.117 26.533 182.561 26.3077 181.868 26.169C181.175 26.013 180.318 25.9263 179.297 25.909L173.362 25.805C172.688 25.7877 172.25 25.727 172.05 25.623C171.849 25.5017 171.749 25.2937 171.749 24.999C171.749 24.7043 171.858 24.479 172.077 24.323C172.314 24.1497 172.752 24.063 173.39 24.063H178.121C179.635 24.063 180.391 24.401 180.391 25.077H184.658C184.658 24.3143 184.539 23.6817 184.302 23.179C184.083 22.6763 183.746 22.2863 183.29 22.009C182.853 21.7143 182.287 21.515 181.595 21.411C180.92 21.2897 180.127 21.229 179.215 21.229H173.089C172.068 21.229 171.211 21.3157 170.518 21.489C169.844 21.6623 169.297 21.9223 168.877 22.269C168.458 22.5983 168.157 23.0057 167.975 23.491C167.811 23.959 167.728 24.4963 167.728 25.103V25.727C167.728 26.3857 167.829 26.9317 168.029 27.365C168.248 27.7983 168.549 28.1537 168.932 28.431C169.333 28.691 169.816 28.8817 170.381 29.003C170.965 29.107 171.621 29.1677 172.351 29.185L178.449 29.289C179.161 29.3063 179.635 29.4103 179.872 29.601C180.109 29.7743 180.227 30.0083 180.227 30.303C180.227 30.6323 180.1 30.8923 179.844 31.083C179.607 31.2563 179.142 31.343 178.449 31.343H173.417C173.053 31.343 172.761 31.317 172.542 31.265C172.323 31.1957 172.15 31.109 172.022 31.005C171.895 30.901 171.813 30.7883 171.776 30.667C171.74 30.5457 171.721 30.4243 171.721 30.303Z" fill="#010E38"/>
</g>
<g id="Rectangle 1305531" style="mix-blend-mode:color">
<rect width="185" height="52" fill="#292929"/>
</g>
</g>
</svg>
